<mxfile host="app.diagrams.net" modified="2021-03-08T03:27:48.887Z" agent="5.0 (Windows NT 10.0; Win64; x64) AppleWebKit/537.36 (KHTML, like Gecko) Chrome/88.0.4324.190 Safari/537.36" etag="4wiFiLJpynfYet8HxuNp" version="14.4.4" type="github">
  <diagram id="C5RBs43oDa-KdzZeNtuy" name="Page-1">
    <mxGraphModel dx="1038" dy="548" grid="1" gridSize="10" guides="1" tooltips="1" connect="1" arrows="1" fold="1" page="1" pageScale="1" pageWidth="827" pageHeight="1169" background="#283618" math="0" shadow="0">
      <root>
        <mxCell id="WIyWlLk6GJQsqaUBKTNV-0" />
        <mxCell id="WIyWlLk6GJQsqaUBKTNV-1" parent="WIyWlLk6GJQsqaUBKTNV-0" />
        <mxCell id="tV4dx6V_VerZAYhTEQgx-2" style="edgeStyle=orthogonalEdgeStyle;curved=0;rounded=1;sketch=0;orthogonalLoop=1;jettySize=auto;html=1;exitX=1;exitY=0.5;exitDx=0;exitDy=0;entryX=0;entryY=0.5;entryDx=0;entryDy=0;strokeColor=#DDA15E;fillColor=#BC6C25;fontColor=#FEFAE0;labelBackgroundColor=#283618;" edge="1" parent="WIyWlLk6GJQsqaUBKTNV-1" source="tV4dx6V_VerZAYhTEQgx-0" target="tV4dx6V_VerZAYhTEQgx-1">
          <mxGeometry relative="1" as="geometry" />
        </mxCell>
        <mxCell id="tV4dx6V_VerZAYhTEQgx-0" value="&lt;font style=&quot;font-size: 24px&quot;&gt;Begin&lt;/font&gt;" style="ellipse;whiteSpace=wrap;html=1;rounded=0;sketch=0;strokeColor=#DDA15E;fillColor=#BC6C25;fontColor=#FEFAE0;" vertex="1" parent="WIyWlLk6GJQsqaUBKTNV-1">
          <mxGeometry width="120" height="80" as="geometry" />
        </mxCell>
        <mxCell id="tV4dx6V_VerZAYhTEQgx-17" style="edgeStyle=orthogonalEdgeStyle;curved=0;rounded=1;sketch=0;orthogonalLoop=1;jettySize=auto;html=1;exitX=1;exitY=0.5;exitDx=0;exitDy=0;entryX=0;entryY=0.5;entryDx=0;entryDy=0;strokeColor=#DDA15E;fillColor=#BC6C25;fontColor=#FEFAE0;labelBackgroundColor=#283618;" edge="1" parent="WIyWlLk6GJQsqaUBKTNV-1" source="tV4dx6V_VerZAYhTEQgx-1" target="tV4dx6V_VerZAYhTEQgx-16">
          <mxGeometry relative="1" as="geometry" />
        </mxCell>
        <mxCell id="tV4dx6V_VerZAYhTEQgx-1" value="&lt;font style=&quot;font-size: 18px&quot;&gt;Nhập n&lt;/font&gt;" style="shape=parallelogram;perimeter=parallelogramPerimeter;whiteSpace=wrap;html=1;fixedSize=1;rounded=0;sketch=0;strokeColor=#DDA15E;fillColor=#BC6C25;fontColor=#FEFAE0;" vertex="1" parent="WIyWlLk6GJQsqaUBKTNV-1">
          <mxGeometry x="190" y="10" width="120" height="60" as="geometry" />
        </mxCell>
        <mxCell id="tV4dx6V_VerZAYhTEQgx-19" style="edgeStyle=orthogonalEdgeStyle;curved=0;rounded=1;sketch=0;orthogonalLoop=1;jettySize=auto;html=1;exitX=0.5;exitY=1;exitDx=0;exitDy=0;strokeColor=#DDA15E;fillColor=#BC6C25;fontColor=#FEFAE0;labelBackgroundColor=#283618;" edge="1" parent="WIyWlLk6GJQsqaUBKTNV-1" source="tV4dx6V_VerZAYhTEQgx-3">
          <mxGeometry relative="1" as="geometry">
            <mxPoint x="540" y="170" as="targetPoint" />
          </mxGeometry>
        </mxCell>
        <mxCell id="tV4dx6V_VerZAYhTEQgx-3" value="&lt;font style=&quot;font-size: 18px&quot;&gt;n&amp;gt;0&lt;/font&gt;" style="rhombus;whiteSpace=wrap;html=1;rounded=0;sketch=0;strokeColor=#DDA15E;fillColor=#BC6C25;fontColor=#FEFAE0;" vertex="1" parent="WIyWlLk6GJQsqaUBKTNV-1">
          <mxGeometry x="500" width="80" height="80" as="geometry" />
        </mxCell>
        <mxCell id="tV4dx6V_VerZAYhTEQgx-6" value="" style="endArrow=none;html=1;strokeColor=#DDA15E;fillColor=#BC6C25;fontColor=#FEFAE0;labelBackgroundColor=#283618;" edge="1" parent="WIyWlLk6GJQsqaUBKTNV-1">
          <mxGeometry width="50" height="50" relative="1" as="geometry">
            <mxPoint x="580" y="39.5" as="sourcePoint" />
            <mxPoint x="730" y="39.5" as="targetPoint" />
          </mxGeometry>
        </mxCell>
        <mxCell id="tV4dx6V_VerZAYhTEQgx-7" value="Sai" style="text;html=1;strokeColor=none;fillColor=none;align=center;verticalAlign=middle;whiteSpace=wrap;rounded=0;sketch=0;fontColor=#FEFAE0;" vertex="1" parent="WIyWlLk6GJQsqaUBKTNV-1">
          <mxGeometry x="640" y="20" width="40" height="20" as="geometry" />
        </mxCell>
        <mxCell id="tV4dx6V_VerZAYhTEQgx-9" value="Đúng" style="text;html=1;strokeColor=none;fillColor=none;align=center;verticalAlign=middle;whiteSpace=wrap;rounded=0;sketch=0;fontColor=#FEFAE0;" vertex="1" parent="WIyWlLk6GJQsqaUBKTNV-1">
          <mxGeometry x="490" y="110" width="40" height="20" as="geometry" />
        </mxCell>
        <mxCell id="tV4dx6V_VerZAYhTEQgx-18" style="edgeStyle=orthogonalEdgeStyle;curved=0;rounded=1;sketch=0;orthogonalLoop=1;jettySize=auto;html=1;exitX=1;exitY=0.5;exitDx=0;exitDy=0;entryX=0;entryY=0.5;entryDx=0;entryDy=0;strokeColor=#DDA15E;fillColor=#BC6C25;fontColor=#FEFAE0;labelBackgroundColor=#283618;" edge="1" parent="WIyWlLk6GJQsqaUBKTNV-1" source="tV4dx6V_VerZAYhTEQgx-16" target="tV4dx6V_VerZAYhTEQgx-3">
          <mxGeometry relative="1" as="geometry" />
        </mxCell>
        <mxCell id="tV4dx6V_VerZAYhTEQgx-16" value="&lt;font style=&quot;font-size: 18px&quot;&gt;S&amp;lt;==0&lt;br&gt;a&amp;lt;==0&lt;br&gt;i&amp;lt;==0&lt;/font&gt;" style="rounded=0;whiteSpace=wrap;html=1;sketch=0;strokeColor=#DDA15E;fillColor=#BC6C25;fontColor=#FEFAE0;" vertex="1" parent="WIyWlLk6GJQsqaUBKTNV-1">
          <mxGeometry x="350" y="10" width="120" height="60" as="geometry" />
        </mxCell>
        <mxCell id="tV4dx6V_VerZAYhTEQgx-23" style="edgeStyle=orthogonalEdgeStyle;curved=0;rounded=1;sketch=0;orthogonalLoop=1;jettySize=auto;html=1;exitX=0.5;exitY=1;exitDx=0;exitDy=0;entryX=0.5;entryY=0;entryDx=0;entryDy=0;strokeColor=#DDA15E;fillColor=#BC6C25;fontColor=#FEFAE0;labelBackgroundColor=#283618;" edge="1" parent="WIyWlLk6GJQsqaUBKTNV-1" source="tV4dx6V_VerZAYhTEQgx-20" target="tV4dx6V_VerZAYhTEQgx-22">
          <mxGeometry relative="1" as="geometry" />
        </mxCell>
        <mxCell id="tV4dx6V_VerZAYhTEQgx-20" value="&lt;font style=&quot;font-size: 18px&quot;&gt;a&amp;lt;==2i+1&lt;/font&gt;" style="rounded=0;whiteSpace=wrap;html=1;sketch=0;strokeColor=#DDA15E;fillColor=#BC6C25;fontColor=#FEFAE0;" vertex="1" parent="WIyWlLk6GJQsqaUBKTNV-1">
          <mxGeometry x="480" y="170" width="120" height="60" as="geometry" />
        </mxCell>
        <mxCell id="tV4dx6V_VerZAYhTEQgx-25" style="edgeStyle=orthogonalEdgeStyle;curved=0;rounded=1;sketch=0;orthogonalLoop=1;jettySize=auto;html=1;exitX=0.5;exitY=1;exitDx=0;exitDy=0;entryX=0.5;entryY=0;entryDx=0;entryDy=0;strokeColor=#DDA15E;fillColor=#BC6C25;fontColor=#FEFAE0;labelBackgroundColor=#283618;" edge="1" parent="WIyWlLk6GJQsqaUBKTNV-1" source="tV4dx6V_VerZAYhTEQgx-22" target="tV4dx6V_VerZAYhTEQgx-24">
          <mxGeometry relative="1" as="geometry" />
        </mxCell>
        <mxCell id="tV4dx6V_VerZAYhTEQgx-22" value="&lt;font style=&quot;font-size: 18px&quot;&gt;S&amp;lt;==S+a/a+1&lt;/font&gt;" style="rounded=0;whiteSpace=wrap;html=1;sketch=0;strokeColor=#DDA15E;fillColor=#BC6C25;fontColor=#FEFAE0;" vertex="1" parent="WIyWlLk6GJQsqaUBKTNV-1">
          <mxGeometry x="480" y="280" width="120" height="60" as="geometry" />
        </mxCell>
        <mxCell id="tV4dx6V_VerZAYhTEQgx-29" style="edgeStyle=orthogonalEdgeStyle;curved=0;rounded=1;sketch=0;orthogonalLoop=1;jettySize=auto;html=1;exitX=0.5;exitY=1;exitDx=0;exitDy=0;entryX=0.5;entryY=0;entryDx=0;entryDy=0;strokeColor=#DDA15E;fillColor=#BC6C25;fontColor=#FEFAE0;labelBackgroundColor=#283618;" edge="1" parent="WIyWlLk6GJQsqaUBKTNV-1" source="tV4dx6V_VerZAYhTEQgx-24" target="tV4dx6V_VerZAYhTEQgx-26">
          <mxGeometry relative="1" as="geometry" />
        </mxCell>
        <mxCell id="tV4dx6V_VerZAYhTEQgx-24" value="&lt;font style=&quot;font-size: 24px&quot;&gt;i=i+1&lt;/font&gt;" style="rounded=0;whiteSpace=wrap;html=1;sketch=0;strokeColor=#DDA15E;fillColor=#BC6C25;fontColor=#FEFAE0;" vertex="1" parent="WIyWlLk6GJQsqaUBKTNV-1">
          <mxGeometry x="480" y="400" width="120" height="60" as="geometry" />
        </mxCell>
        <mxCell id="tV4dx6V_VerZAYhTEQgx-34" style="edgeStyle=orthogonalEdgeStyle;curved=0;rounded=1;sketch=0;orthogonalLoop=1;jettySize=auto;html=1;exitX=0.5;exitY=1;exitDx=0;exitDy=0;entryX=0.5;entryY=0;entryDx=0;entryDy=0;strokeColor=#DDA15E;fillColor=#BC6C25;fontColor=#FEFAE0;labelBackgroundColor=#283618;" edge="1" parent="WIyWlLk6GJQsqaUBKTNV-1" source="tV4dx6V_VerZAYhTEQgx-26" target="tV4dx6V_VerZAYhTEQgx-33">
          <mxGeometry relative="1" as="geometry" />
        </mxCell>
        <mxCell id="tV4dx6V_VerZAYhTEQgx-26" value="&lt;font style=&quot;font-size: 24px&quot;&gt;i=n&lt;/font&gt;" style="rhombus;whiteSpace=wrap;html=1;rounded=0;sketch=0;strokeColor=#DDA15E;fillColor=#BC6C25;fontColor=#FEFAE0;" vertex="1" parent="WIyWlLk6GJQsqaUBKTNV-1">
          <mxGeometry x="500" y="510" width="80" height="80" as="geometry" />
        </mxCell>
        <mxCell id="tV4dx6V_VerZAYhTEQgx-27" value="" style="endArrow=none;html=1;strokeColor=#DDA15E;fillColor=#BC6C25;fontColor=#FEFAE0;labelBackgroundColor=#283618;" edge="1" parent="WIyWlLk6GJQsqaUBKTNV-1">
          <mxGeometry width="50" height="50" relative="1" as="geometry">
            <mxPoint x="330" y="549.5" as="sourcePoint" />
            <mxPoint x="500" y="549.5" as="targetPoint" />
          </mxGeometry>
        </mxCell>
        <mxCell id="tV4dx6V_VerZAYhTEQgx-28" value="Sai" style="text;html=1;strokeColor=none;fillColor=none;align=center;verticalAlign=middle;whiteSpace=wrap;rounded=0;sketch=0;fontColor=#FEFAE0;" vertex="1" parent="WIyWlLk6GJQsqaUBKTNV-1">
          <mxGeometry x="394" y="520" width="40" height="20" as="geometry" />
        </mxCell>
        <mxCell id="tV4dx6V_VerZAYhTEQgx-30" value="" style="endArrow=classic;html=1;strokeColor=#DDA15E;fillColor=#BC6C25;fontColor=#FEFAE0;labelBackgroundColor=#283618;" edge="1" parent="WIyWlLk6GJQsqaUBKTNV-1">
          <mxGeometry width="50" height="50" relative="1" as="geometry">
            <mxPoint x="330" y="550" as="sourcePoint" />
            <mxPoint x="330" y="90" as="targetPoint" />
          </mxGeometry>
        </mxCell>
        <mxCell id="tV4dx6V_VerZAYhTEQgx-31" value="" style="endArrow=classic;html=1;strokeColor=#DDA15E;fillColor=#BC6C25;fontColor=#FEFAE0;labelBackgroundColor=#283618;" edge="1" parent="WIyWlLk6GJQsqaUBKTNV-1">
          <mxGeometry width="50" height="50" relative="1" as="geometry">
            <mxPoint x="330" y="90" as="sourcePoint" />
            <mxPoint x="540" y="90" as="targetPoint" />
          </mxGeometry>
        </mxCell>
        <mxCell id="tV4dx6V_VerZAYhTEQgx-36" style="edgeStyle=orthogonalEdgeStyle;curved=0;rounded=1;sketch=0;orthogonalLoop=1;jettySize=auto;html=1;exitX=1;exitY=0.5;exitDx=0;exitDy=0;strokeColor=#DDA15E;fillColor=#BC6C25;fontColor=#FEFAE0;labelBackgroundColor=#283618;" edge="1" parent="WIyWlLk6GJQsqaUBKTNV-1" source="tV4dx6V_VerZAYhTEQgx-33" target="tV4dx6V_VerZAYhTEQgx-37">
          <mxGeometry relative="1" as="geometry">
            <mxPoint x="700" y="670" as="targetPoint" />
          </mxGeometry>
        </mxCell>
        <mxCell id="tV4dx6V_VerZAYhTEQgx-33" value="&lt;font style=&quot;font-size: 18px&quot;&gt;Tổng là S&lt;/font&gt;" style="shape=parallelogram;perimeter=parallelogramPerimeter;whiteSpace=wrap;html=1;fixedSize=1;rounded=0;sketch=0;strokeColor=#DDA15E;fillColor=#BC6C25;fontColor=#FEFAE0;" vertex="1" parent="WIyWlLk6GJQsqaUBKTNV-1">
          <mxGeometry x="480" y="640" width="120" height="60" as="geometry" />
        </mxCell>
        <mxCell id="tV4dx6V_VerZAYhTEQgx-37" value="&lt;font style=&quot;font-size: 24px&quot;&gt;End&lt;/font&gt;" style="ellipse;whiteSpace=wrap;html=1;fillColor=#BC6C25;strokeColor=#DDA15E;fontColor=#FEFAE0;" vertex="1" parent="WIyWlLk6GJQsqaUBKTNV-1">
          <mxGeometry x="680" y="630" width="120" height="80" as="geometry" />
        </mxCell>
        <mxCell id="tV4dx6V_VerZAYhTEQgx-38" value="" style="endArrow=classic;html=1;strokeColor=#DDA15E;fillColor=#BC6C25;fontColor=#FEFAE0;entryX=0.417;entryY=0;entryDx=0;entryDy=0;entryPerimeter=0;" edge="1" parent="WIyWlLk6GJQsqaUBKTNV-1" target="tV4dx6V_VerZAYhTEQgx-37">
          <mxGeometry width="50" height="50" relative="1" as="geometry">
            <mxPoint x="730" y="40" as="sourcePoint" />
            <mxPoint x="780" y="-10" as="targetPoint" />
          </mxGeometry>
        </mxCell>
      </root>
    </mxGraphModel>
  </diagram>
</mxfile>
